# xmcd
#
# Track frame offsets:
# 150
# 15939
# 37546
# 51578
# 63097
# 84398
# 98537
# 101692
# 111338
# 115859
#
# Disc length: 1657 seconds
#
#
# Revision: 0
# Processed by: cddbd v1.5.1PL2 Copyright (c) Steve Scherf et al.
# Submitted via: FreeRIP 2.941 
#
DISCID=6c06770a
DTITLE=Villancicos populares II - Disco II
DYEAR=1996
DGENRE=Contemporary Christian
TTITLE0=La Nochebuena
TTITLE1=Llegó la Navidad
TTITLE2=Pastores bonitos
TTITLE3=En los brazos de la Virgen
TTITLE4=Cantando a la Navidad
TTITLE5=Coplas al niño de Dios
TTITLE6=Sopas le hicieron al niño
TTITLE7=Suenan las campanas
TTITLE8=Los pastores y las pastoras
TTITLE9=El rabadan
EXTD=AD-02298
EXTT0=
EXTT1=
EXTT2=
EXTT3=
EXTT4=
EXTT5=
EXTT6=
EXTT7=
EXTT8=
EXTT9=
PLAYORDER=
